<svg xmlns="http://www.w3.org/2000/svg" xmlns:xlink="http://www.w3.org/1999/xlink" width="1366" zoomAndPan="magnify" viewBox="0 0 1024.5 576" height="768" preserveAspectRatio="xMidYMid meet" version="1.0"><defs><clipPath id="b31b76f4c7"><path d="M 363.769531 141.09375 L 593.90625 141.09375 L 593.90625 371.230469 L 363.769531 371.230469 Z M 363.769531 141.09375 " clip-rule="nonzero"/></clipPath></defs><path fill="#000000" d="M 443.113281 317.15625 C 443.113281 317.476562 443.082031 317.796875 443.015625 318.113281 C 442.953125 318.429688 442.859375 318.738281 442.738281 319.035156 C 442.613281 319.332031 442.464844 319.617188 442.285156 319.882812 C 442.105469 320.152344 441.902344 320.402344 441.671875 320.628906 C 441.445312 320.855469 441.195312 321.058594 440.929688 321.238281 C 440.660156 321.417969 440.375 321.570312 440.078125 321.695312 C 439.78125 321.816406 439.472656 321.910156 439.15625 321.972656 C 438.839844 322.035156 438.519531 322.066406 438.199219 322.066406 C 437.875 322.066406 437.558594 322.035156 437.242188 321.972656 C 436.925781 321.910156 436.617188 321.816406 436.320312 321.695312 C 436.019531 321.570312 435.738281 321.417969 435.46875 321.238281 C 435.199219 321.058594 434.953125 320.855469 434.726562 320.628906 C 434.496094 320.402344 434.292969 320.152344 434.113281 319.882812 C 433.933594 319.617188 433.78125 319.332031 433.660156 319.035156 C 433.535156 318.738281 433.441406 318.429688 433.378906 318.113281 C 433.316406 317.796875 433.285156 317.476562 433.285156 317.15625 C 433.285156 316.832031 433.316406 316.511719 433.378906 316.195312 C 433.441406 315.878906 433.535156 315.574219 433.660156 315.273438 C 433.78125 314.976562 433.933594 314.691406 434.113281 314.425781 C 434.292969 314.15625 434.496094 313.910156 434.726562 313.679688 C 434.953125 313.453125 435.199219 313.25 435.46875 313.070312 C 435.738281 312.890625 436.019531 312.738281 436.320312 312.617188 C 436.617188 312.492188 436.925781 312.398438 437.242188 312.335938 C 437.558594 312.273438 437.875 312.242188 438.199219 312.242188 C 438.519531 312.242188 438.839844 312.273438 439.15625 312.335938 C 439.472656 312.398438 439.78125 312.492188 440.078125 312.617188 C 440.375 312.738281 440.660156 312.890625 440.929688 313.070312 C 441.195312 313.25 441.445312 313.453125 441.671875 313.679688 C 441.902344 313.910156 442.105469 314.15625 442.285156 314.425781 C 442.464844 314.691406 442.613281 314.976562 442.738281 315.273438 C 442.859375 315.574219 442.953125 315.878906 443.015625 316.195312 C 443.082031 316.511719 443.113281 316.832031 443.113281 317.15625 Z M 443.113281 317.15625 " fill-opacity="1" fill-rule="nonzero"/><path fill="#000000" d="M 523.75 317.15625 C 523.75 317.476562 523.71875 317.796875 523.65625 318.113281 C 523.59375 318.429688 523.5 318.738281 523.375 319.035156 C 523.253906 319.332031 523.101562 319.617188 522.921875 319.882812 C 522.742188 320.152344 522.539062 320.402344 522.308594 320.628906 C 522.082031 320.855469 521.835938 321.058594 521.566406 321.238281 C 521.296875 321.417969 521.015625 321.570312 520.714844 321.695312 C 520.417969 321.816406 520.109375 321.910156 519.792969 321.972656 C 519.480469 322.035156 519.160156 322.066406 518.835938 322.066406 C 518.515625 322.066406 518.195312 322.035156 517.878906 321.972656 C 517.5625 321.910156 517.253906 321.816406 516.957031 321.695312 C 516.660156 321.570312 516.375 321.417969 516.105469 321.238281 C 515.839844 321.058594 515.589844 320.855469 515.363281 320.628906 C 515.132812 320.402344 514.929688 320.152344 514.75 319.882812 C 514.570312 319.617188 514.421875 319.332031 514.296875 319.035156 C 514.175781 318.738281 514.082031 318.429688 514.019531 318.113281 C 513.953125 317.796875 513.921875 317.476562 513.921875 317.15625 C 513.921875 316.832031 513.953125 316.511719 514.019531 316.195312 C 514.082031 315.878906 514.175781 315.574219 514.296875 315.273438 C 514.421875 314.976562 514.570312 314.691406 514.75 314.425781 C 514.929688 314.15625 515.132812 313.910156 515.363281 313.679688 C 515.589844 313.453125 515.839844 313.25 516.105469 313.070312 C 516.375 312.890625 516.660156 312.738281 516.957031 312.617188 C 517.253906 312.492188 517.5625 312.398438 517.878906 312.335938 C 518.195312 312.273438 518.515625 312.242188 518.835938 312.242188 C 519.160156 312.242188 519.480469 312.273438 519.796875 312.335938 C 520.109375 312.398438 520.417969 312.492188 520.714844 312.617188 C 521.015625 312.738281 521.296875 312.890625 521.566406 313.070312 C 521.835938 313.25 522.082031 313.453125 522.308594 313.679688 C 522.539062 313.910156 522.742188 314.15625 522.921875 314.425781 C 523.101562 314.691406 523.253906 314.976562 523.375 315.273438 C 523.5 315.574219 523.59375 315.878906 523.65625 316.195312 C 523.71875 316.511719 523.75 316.832031 523.75 317.15625 Z M 523.75 317.15625 " fill-opacity="1" fill-rule="nonzero"/><g clip-path="url(#b31b76f4c7)"><path fill="#000000" d="M 478.816406 141.023438 C 415.285156 141.023438 363.78125 192.53125 363.78125 256.058594 C 363.78125 319.589844 415.285156 371.101562 478.816406 371.101562 C 542.351562 371.101562 593.855469 319.589844 593.855469 256.058594 C 593.855469 192.527344 542.351562 141.023438 478.816406 141.023438 Z M 447.378906 300.308594 L 518.835938 300.308594 C 528.125 300.308594 535.683594 307.867188 535.683594 317.15625 C 535.683594 326.445312 528.125 334.003906 518.835938 334.003906 C 509.546875 334.003906 501.988281 326.445312 501.988281 317.15625 C 501.988281 315.445312 502.246094 313.796875 502.722656 312.242188 L 454.308594 312.242188 C 454.785156 313.796875 455.046875 315.445312 455.046875 317.15625 C 455.046875 326.445312 447.488281 334.003906 438.199219 334.003906 C 428.90625 334.003906 421.351562 326.445312 421.351562 317.15625 C 421.351562 308.855469 427.386719 301.957031 435.296875 300.574219 L 432.335938 284.261719 L 432.304688 284.109375 L 416.59375 206.367188 L 402.164062 206.460938 L 402.082031 194.527344 L 426.347656 194.367188 L 432.21875 223.417969 L 541 236.460938 L 527.179688 289.117188 L 445.347656 289.117188 Z M 447.378906 300.308594 " fill-opacity="1" fill-rule="nonzero"/></g></svg>