<svg xmlns="http://www.w3.org/2000/svg" xmlns:xlink="http://www.w3.org/1999/xlink" width="1366" zoomAndPan="magnify" viewBox="0 0 1024.5 576" height="768" preserveAspectRatio="xMidYMid meet" version="1.0"><defs><clipPath id="56056899c9"><path d="M 431 133.152344 L 594 133.152344 L 594 363 L 431 363 Z M 431 133.152344 " clip-rule="nonzero"/></clipPath></defs><path fill="#000000" d="M 542.347656 213.121094 C 542.992188 213.734375 543.566406 214.402344 544.074219 215.132812 C 544.582031 215.859375 545.011719 216.632812 545.363281 217.449219 C 545.714844 218.261719 545.980469 219.105469 546.160156 219.972656 C 546.34375 220.84375 546.4375 221.722656 546.441406 222.609375 C 546.445312 223.496094 546.363281 224.378906 546.191406 225.25 C 546.019531 226.117188 545.761719 226.964844 545.417969 227.78125 C 545.074219 228.601562 544.65625 229.378906 544.15625 230.113281 C 543.65625 230.847656 543.089844 231.523438 542.453125 232.140625 L 512.339844 260.410156 L 482.335938 232.246094 C 481.039062 230.992188 480.039062 229.535156 479.328125 227.878906 C 478.617188 226.21875 478.257812 224.488281 478.242188 222.683594 C 478.246094 220.878906 478.605469 219.144531 479.3125 217.484375 C 480.023438 215.824219 481.03125 214.371094 482.335938 213.121094 C 483.722656 211.800781 485.304688 210.789062 487.082031 210.078125 C 488.859375 209.371094 490.703125 209.019531 492.617188 209.023438 C 494.53125 209.007812 496.378906 209.355469 498.15625 210.066406 C 499.9375 210.773438 501.515625 211.792969 502.898438 213.121094 L 506.886719 216.90625 C 507.25 217.253906 507.640625 217.566406 508.0625 217.84375 C 508.488281 218.117188 508.933594 218.347656 509.398438 218.539062 C 509.867188 218.726562 510.347656 218.871094 510.84375 218.964844 C 511.339844 219.0625 511.835938 219.109375 512.339844 219.109375 C 512.847656 219.109375 513.34375 219.0625 513.839844 218.964844 C 514.335938 218.871094 514.816406 218.726562 515.285156 218.539062 C 515.75 218.347656 516.195312 218.117188 516.621094 217.84375 C 517.042969 217.566406 517.433594 217.253906 517.796875 216.90625 L 521.785156 213.121094 C 522.472656 212.46875 523.214844 211.886719 524.015625 211.378906 C 524.8125 210.867188 525.652344 210.4375 526.535156 210.085938 C 527.414062 209.734375 528.320312 209.46875 529.25 209.289062 C 530.179688 209.113281 531.121094 209.023438 532.066406 209.023438 C 533.015625 209.023438 533.953125 209.113281 534.882812 209.289062 C 535.816406 209.46875 536.71875 209.734375 537.601562 210.085938 C 538.480469 210.4375 539.320312 210.867188 540.117188 211.378906 C 540.917969 211.886719 541.660156 212.46875 542.347656 213.121094 Z M 542.347656 213.121094 " fill-opacity="1" fill-rule="nonzero"/><g clip-path="url(#56056899c9)"><path fill="#000000" d="M 564.804688 133.675781 L 459.878906 133.675781 C 458.9375 133.675781 457.992188 133.722656 457.050781 133.8125 C 456.109375 133.90625 455.175781 134.042969 454.25 134.230469 C 453.324219 134.414062 452.40625 134.640625 451.503906 134.917969 C 450.597656 135.191406 449.710938 135.507812 448.835938 135.871094 C 447.960938 136.234375 447.109375 136.636719 446.273438 137.082031 C 445.441406 137.527344 444.632812 138.015625 443.84375 138.539062 C 443.058594 139.066406 442.300781 139.628906 441.570312 140.230469 C 440.839844 140.832031 440.140625 141.464844 439.472656 142.136719 C 438.804688 142.804688 438.167969 143.503906 437.570312 144.238281 C 436.972656 144.96875 436.410156 145.726562 435.882812 146.515625 C 435.359375 147.300781 434.875 148.113281 434.429688 148.949219 C 433.984375 149.785156 433.578125 150.636719 433.21875 151.511719 C 432.855469 152.386719 432.539062 153.277344 432.265625 154.183594 C 431.992188 155.089844 431.761719 156.007812 431.578125 156.9375 C 431.394531 157.863281 431.257812 158.800781 431.164062 159.742188 C 431.070312 160.683594 431.027344 161.628906 431.027344 162.574219 L 431.027344 344.164062 C 431.027344 344.5625 431.042969 344.964844 431.070312 345.363281 C 431.097656 345.761719 431.136719 346.160156 431.191406 346.558594 C 431.242188 346.953125 431.308594 347.347656 431.386719 347.742188 C 431.46875 348.132812 431.558594 348.523438 431.664062 348.910156 C 431.765625 349.296875 431.882812 349.679688 432.011719 350.058594 C 432.140625 350.4375 432.28125 350.8125 432.4375 351.179688 C 432.589844 351.550781 432.753906 351.914062 432.929688 352.273438 C 433.109375 352.632812 433.296875 352.984375 433.496094 353.332031 C 433.695312 353.679688 433.90625 354.015625 434.128906 354.351562 C 434.351562 354.683594 434.585938 355.007812 434.828125 355.324219 C 435.070312 355.644531 435.324219 355.953125 435.589844 356.253906 C 435.851562 356.554688 436.125 356.847656 436.40625 357.128906 C 436.6875 357.414062 436.980469 357.6875 437.28125 357.953125 C 437.582031 358.214844 437.890625 358.46875 438.207031 358.714844 C 438.523438 358.957031 438.847656 359.191406 439.179688 359.414062 C 439.511719 359.636719 439.851562 359.851562 440.195312 360.050781 C 440.542969 360.25 440.894531 360.441406 441.25 360.621094 C 441.609375 360.796875 441.972656 360.964844 442.339844 361.117188 C 442.710938 361.273438 443.082031 361.414062 443.460938 361.542969 C 443.839844 361.671875 444.222656 361.789062 444.605469 361.894531 C 444.992188 362 445.382812 362.09375 445.773438 362.171875 C 446.164062 362.25 446.558594 362.320312 446.953125 362.371094 C 447.351562 362.425781 447.75 362.46875 448.148438 362.496094 C 448.546875 362.523438 448.945312 362.539062 449.34375 362.539062 C 449.746094 362.542969 450.144531 362.53125 450.542969 362.507812 C 450.941406 362.480469 451.339844 362.445312 451.734375 362.394531 C 452.132812 362.34375 452.527344 362.28125 452.917969 362.207031 C 453.3125 362.128906 453.703125 362.042969 454.089844 361.941406 C 454.472656 361.839844 454.859375 361.726562 455.238281 361.597656 C 455.617188 361.472656 455.992188 361.332031 456.359375 361.183594 C 456.730469 361.03125 457.097656 360.871094 457.457031 360.695312 C 457.816406 360.519531 458.167969 360.335938 458.515625 360.136719 L 511.082031 330.082031 C 511.460938 329.820312 511.882812 329.6875 512.34375 329.6875 C 512.800781 329.6875 513.222656 329.820312 513.601562 330.082031 L 566.167969 360.136719 C 569 361.730469 572.042969 362.535156 575.296875 362.554688 C 578.597656 362.535156 581.675781 361.695312 584.527344 360.03125 C 585.917969 359.226562 587.179688 358.253906 588.3125 357.117188 C 589.445312 355.980469 590.414062 354.714844 591.214844 353.320312 C 592.015625 351.929688 592.625 350.457031 593.039062 348.902344 C 593.453125 347.351562 593.65625 345.769531 593.65625 344.164062 L 593.65625 162.574219 C 593.65625 161.628906 593.613281 160.683594 593.519531 159.742188 C 593.425781 158.800781 593.289062 157.863281 593.105469 156.9375 C 592.921875 156.007812 592.691406 155.089844 592.417969 154.183594 C 592.144531 153.277344 591.828125 152.386719 591.464844 151.511719 C 591.105469 150.636719 590.699219 149.785156 590.253906 148.949219 C 589.808594 148.113281 589.324219 147.300781 588.800781 146.515625 C 588.273438 145.726562 587.710938 144.96875 587.113281 144.238281 C 586.515625 143.503906 585.878906 142.804688 585.210938 142.136719 C 584.542969 141.464844 583.84375 140.832031 583.113281 140.230469 C 582.382812 139.628906 581.625 139.066406 580.839844 138.539062 C 580.050781 138.015625 579.242188 137.527344 578.410156 137.082031 C 577.574219 136.636719 576.722656 136.234375 575.847656 135.871094 C 574.972656 135.507812 574.085938 135.191406 573.179688 134.917969 C 572.277344 134.640625 571.359375 134.414062 570.433594 134.230469 C 569.507812 134.042969 568.570312 133.90625 567.632812 133.8125 C 566.691406 133.722656 565.746094 133.675781 564.804688 133.675781 Z M 553.261719 243.597656 L 517.691406 276.910156 C 517.332031 277.242188 516.945312 277.542969 516.527344 277.804688 C 516.109375 278.066406 515.671875 278.285156 515.214844 278.46875 C 514.757812 278.648438 514.289062 278.78125 513.804688 278.875 C 513.320312 278.964844 512.832031 279.011719 512.339844 279.011719 C 511.851562 279.011719 511.363281 278.964844 510.878906 278.875 C 510.394531 278.78125 509.925781 278.648438 509.46875 278.46875 C 509.011719 278.285156 508.574219 278.066406 508.15625 277.804688 C 507.738281 277.542969 507.351562 277.242188 506.992188 276.910156 L 471.527344 243.703125 C 470.820312 243.027344 470.144531 242.324219 469.507812 241.582031 C 468.871094 240.839844 468.273438 240.070312 467.714844 239.269531 C 467.15625 238.46875 466.636719 237.640625 466.164062 236.785156 C 465.6875 235.929688 465.257812 235.054688 464.871094 234.15625 C 464.484375 233.261719 464.140625 232.34375 463.847656 231.414062 C 463.554688 230.480469 463.308594 229.535156 463.109375 228.578125 C 462.910156 227.621094 462.761719 226.65625 462.660156 225.683594 C 462.558594 224.710938 462.507812 223.738281 462.503906 222.757812 C 462.5 221.78125 462.546875 220.804688 462.644531 219.832031 C 462.742188 218.859375 462.886719 217.894531 463.078125 216.9375 C 463.273438 215.980469 463.515625 215.03125 463.804688 214.097656 C 464.09375 213.164062 464.429688 212.25 464.8125 211.347656 C 465.195312 210.449219 465.621094 209.570312 466.09375 208.714844 C 466.5625 207.859375 467.078125 207.027344 467.632812 206.226562 C 468.1875 205.421875 468.78125 204.644531 469.414062 203.902344 C 470.046875 203.160156 470.71875 202.449219 471.421875 201.773438 C 472.097656 201.128906 472.800781 200.515625 473.535156 199.933594 C 474.265625 199.351562 475.023438 198.808594 475.804688 198.296875 C 476.585938 197.785156 477.390625 197.308594 478.214844 196.871094 C 479.039062 196.433594 479.882812 196.03125 480.742188 195.671875 C 481.605469 195.308594 482.480469 194.988281 483.371094 194.703125 C 484.261719 194.421875 485.164062 194.183594 486.074219 193.984375 C 486.988281 193.78125 487.90625 193.625 488.832031 193.507812 C 489.757812 193.394531 490.6875 193.320312 491.621094 193.289062 C 492.554688 193.257812 493.488281 193.269531 494.421875 193.324219 C 495.351562 193.375 496.28125 193.472656 497.203125 193.609375 C 498.128906 193.75 499.042969 193.929688 499.949219 194.152344 C 500.855469 194.375 501.753906 194.636719 502.636719 194.9375 C 503.519531 195.242188 504.386719 195.585938 505.238281 195.96875 C 506.089844 196.351562 506.921875 196.769531 507.738281 197.230469 C 508.550781 197.6875 509.34375 198.183594 510.113281 198.714844 C 510.878906 199.242188 511.625 199.808594 512.339844 200.40625 C 513.058594 199.808594 513.804688 199.242188 514.570312 198.714844 C 515.339844 198.183594 516.132812 197.6875 516.945312 197.230469 C 517.761719 196.769531 518.59375 196.351562 519.445312 195.96875 C 520.296875 195.585938 521.164062 195.242188 522.046875 194.9375 C 522.929688 194.636719 523.828125 194.375 524.734375 194.152344 C 525.640625 193.929688 526.554688 193.75 527.480469 193.609375 C 528.402344 193.472656 529.332031 193.375 530.261719 193.324219 C 531.195312 193.269531 532.128906 193.257812 533.0625 193.289062 C 533.996094 193.320312 534.925781 193.394531 535.851562 193.507812 C 536.777344 193.625 537.695312 193.78125 538.609375 193.984375 C 539.519531 194.183594 540.421875 194.421875 541.3125 194.703125 C 542.203125 194.988281 543.078125 195.308594 543.941406 195.671875 C 544.800781 196.03125 545.644531 196.433594 546.46875 196.871094 C 547.292969 197.308594 548.097656 197.785156 548.878906 198.296875 C 549.660156 198.808594 550.417969 199.351562 551.148438 199.933594 C 551.882812 200.515625 552.585938 201.128906 553.261719 201.773438 C 553.964844 202.445312 554.632812 203.152344 555.265625 203.894531 C 555.894531 204.636719 556.488281 205.40625 557.042969 206.207031 C 557.597656 207.011719 558.109375 207.835938 558.578125 208.691406 C 559.050781 209.542969 559.476562 210.417969 559.859375 211.3125 C 560.242188 212.210938 560.578125 213.125 560.867188 214.054688 C 561.15625 214.984375 561.398438 215.925781 561.59375 216.882812 C 561.789062 217.835938 561.9375 218.796875 562.035156 219.769531 C 562.132812 220.738281 562.183594 221.710938 562.183594 222.683594 C 562.183594 223.660156 562.132812 224.632812 562.035156 225.601562 C 561.9375 226.570312 561.789062 227.53125 561.59375 228.488281 C 561.398438 229.441406 561.15625 230.386719 560.867188 231.316406 C 560.578125 232.246094 560.242188 233.160156 559.859375 234.054688 C 559.476562 234.949219 559.050781 235.824219 558.578125 236.679688 C 558.109375 237.53125 557.597656 238.359375 557.042969 239.160156 C 556.488281 239.960938 555.894531 240.734375 555.265625 241.472656 C 554.632812 242.214844 553.964844 242.921875 553.261719 243.597656 Z M 553.261719 243.597656 " fill-opacity="1" fill-rule="nonzero"/></g></svg>